<mxfile host="app.diagrams.net" modified="2023-07-31T05:53:38.107Z" agent="Mozilla/5.0 (Windows NT 10.0; Win64; x64) AppleWebKit/537.36 (KHTML, like Gecko) Chrome/115.0.0.0 Safari/537.36" etag="_R7IINhUuGQY4J4Ces4-" version="21.6.5" type="github">
  <diagram name="Page-1" id="2YBvvXClWsGukQMizWep">
    <mxGraphModel dx="930" dy="1564" grid="1" gridSize="14" guides="1" tooltips="1" connect="1" arrows="1" fold="1" page="1" pageScale="1" pageWidth="850" pageHeight="1100" background="#FFFFFF" math="0" shadow="1">
      <root>
        <mxCell id="0" />
        <mxCell id="1" parent="0" />
        <mxCell id="JVdptQY95MM00BN9dN_g-1" value="" style="rounded=0;whiteSpace=wrap;html=1;" vertex="1" parent="1">
          <mxGeometry x="40" y="220" width="120" height="60" as="geometry" />
        </mxCell>
        <mxCell id="JVdptQY95MM00BN9dN_g-48" style="edgeStyle=orthogonalEdgeStyle;rounded=0;orthogonalLoop=1;jettySize=auto;html=1;entryX=1;entryY=0.5;entryDx=0;entryDy=0;" edge="1" parent="1" source="JVdptQY95MM00BN9dN_g-2" target="JVdptQY95MM00BN9dN_g-1">
          <mxGeometry relative="1" as="geometry" />
        </mxCell>
        <mxCell id="JVdptQY95MM00BN9dN_g-59" style="edgeStyle=orthogonalEdgeStyle;rounded=0;orthogonalLoop=1;jettySize=auto;html=1;entryX=1;entryY=0.5;entryDx=0;entryDy=0;" edge="1" parent="1" target="JVdptQY95MM00BN9dN_g-56">
          <mxGeometry relative="1" as="geometry">
            <mxPoint x="300.72" y="276.03" as="sourcePoint" />
            <mxPoint x="154" y="84" as="targetPoint" />
            <Array as="points">
              <mxPoint x="217" y="276" />
              <mxPoint x="217" y="84" />
              <mxPoint x="154" y="84" />
              <mxPoint x="154" y="93" />
            </Array>
          </mxGeometry>
        </mxCell>
        <mxCell id="JVdptQY95MM00BN9dN_g-2" value="" style="rounded=0;whiteSpace=wrap;html=1;" vertex="1" parent="1">
          <mxGeometry x="294" y="252" width="159" height="70" as="geometry" />
        </mxCell>
        <mxCell id="JVdptQY95MM00BN9dN_g-40" value="" style="edgeStyle=orthogonalEdgeStyle;rounded=0;orthogonalLoop=1;jettySize=auto;html=1;" edge="1" parent="1" source="JVdptQY95MM00BN9dN_g-4" target="JVdptQY95MM00BN9dN_g-26">
          <mxGeometry relative="1" as="geometry" />
        </mxCell>
        <mxCell id="JVdptQY95MM00BN9dN_g-43" style="edgeStyle=orthogonalEdgeStyle;rounded=0;orthogonalLoop=1;jettySize=auto;html=1;entryX=0.5;entryY=0;entryDx=0;entryDy=0;" edge="1" parent="1" source="JVdptQY95MM00BN9dN_g-4" target="JVdptQY95MM00BN9dN_g-2">
          <mxGeometry relative="1" as="geometry">
            <Array as="points">
              <mxPoint x="425" y="30" />
            </Array>
          </mxGeometry>
        </mxCell>
        <mxCell id="JVdptQY95MM00BN9dN_g-51" style="edgeStyle=orthogonalEdgeStyle;rounded=0;orthogonalLoop=1;jettySize=auto;html=1;entryX=0.622;entryY=0.03;entryDx=0;entryDy=0;entryPerimeter=0;" edge="1" parent="1" source="JVdptQY95MM00BN9dN_g-4" target="JVdptQY95MM00BN9dN_g-10">
          <mxGeometry relative="1" as="geometry" />
        </mxCell>
        <mxCell id="JVdptQY95MM00BN9dN_g-4" value="" style="rounded=0;whiteSpace=wrap;html=1;" vertex="1" parent="1">
          <mxGeometry x="510" width="176" height="90" as="geometry" />
        </mxCell>
        <mxCell id="JVdptQY95MM00BN9dN_g-41" value="" style="edgeStyle=orthogonalEdgeStyle;rounded=0;orthogonalLoop=1;jettySize=auto;html=1;" edge="1" parent="1" source="JVdptQY95MM00BN9dN_g-6" target="JVdptQY95MM00BN9dN_g-27">
          <mxGeometry relative="1" as="geometry" />
        </mxCell>
        <mxCell id="JVdptQY95MM00BN9dN_g-44" style="edgeStyle=orthogonalEdgeStyle;rounded=0;orthogonalLoop=1;jettySize=auto;html=1;entryX=0.75;entryY=0;entryDx=0;entryDy=0;" edge="1" parent="1" target="JVdptQY95MM00BN9dN_g-2">
          <mxGeometry relative="1" as="geometry">
            <mxPoint x="510" y="150" as="sourcePoint" />
            <mxPoint x="455" y="210" as="targetPoint" />
          </mxGeometry>
        </mxCell>
        <mxCell id="JVdptQY95MM00BN9dN_g-53" style="edgeStyle=orthogonalEdgeStyle;rounded=0;orthogonalLoop=1;jettySize=auto;html=1;entryX=0;entryY=0;entryDx=0;entryDy=0;" edge="1" parent="1" source="JVdptQY95MM00BN9dN_g-6" target="JVdptQY95MM00BN9dN_g-10">
          <mxGeometry relative="1" as="geometry" />
        </mxCell>
        <mxCell id="JVdptQY95MM00BN9dN_g-6" value="" style="rounded=0;whiteSpace=wrap;html=1;" vertex="1" parent="1">
          <mxGeometry x="509" y="140" width="191" height="112" as="geometry" />
        </mxCell>
        <mxCell id="JVdptQY95MM00BN9dN_g-45" style="edgeStyle=orthogonalEdgeStyle;rounded=0;orthogonalLoop=1;jettySize=auto;html=1;entryX=1;entryY=0.5;entryDx=0;entryDy=0;" edge="1" parent="1" source="JVdptQY95MM00BN9dN_g-7" target="JVdptQY95MM00BN9dN_g-28">
          <mxGeometry relative="1" as="geometry" />
        </mxCell>
        <mxCell id="JVdptQY95MM00BN9dN_g-49" style="edgeStyle=orthogonalEdgeStyle;rounded=0;orthogonalLoop=1;jettySize=auto;html=1;exitX=0;exitY=0.25;exitDx=0;exitDy=0;entryX=0.5;entryY=1;entryDx=0;entryDy=0;" edge="1" parent="1" source="JVdptQY95MM00BN9dN_g-7" target="JVdptQY95MM00BN9dN_g-2">
          <mxGeometry relative="1" as="geometry" />
        </mxCell>
        <mxCell id="JVdptQY95MM00BN9dN_g-54" style="edgeStyle=orthogonalEdgeStyle;rounded=0;orthogonalLoop=1;jettySize=auto;html=1;entryX=0.25;entryY=1;entryDx=0;entryDy=0;" edge="1" parent="1" source="JVdptQY95MM00BN9dN_g-7" target="JVdptQY95MM00BN9dN_g-10">
          <mxGeometry relative="1" as="geometry" />
        </mxCell>
        <mxCell id="JVdptQY95MM00BN9dN_g-7" value="" style="rounded=0;whiteSpace=wrap;html=1;" vertex="1" parent="1">
          <mxGeometry x="560" y="330" width="120" height="140" as="geometry" />
        </mxCell>
        <mxCell id="JVdptQY95MM00BN9dN_g-46" style="edgeStyle=orthogonalEdgeStyle;rounded=0;orthogonalLoop=1;jettySize=auto;html=1;entryX=1.011;entryY=0.637;entryDx=0;entryDy=0;entryPerimeter=0;" edge="1" parent="1" source="JVdptQY95MM00BN9dN_g-8" target="JVdptQY95MM00BN9dN_g-30">
          <mxGeometry relative="1" as="geometry" />
        </mxCell>
        <mxCell id="JVdptQY95MM00BN9dN_g-50" style="edgeStyle=orthogonalEdgeStyle;rounded=0;orthogonalLoop=1;jettySize=auto;html=1;exitX=0;exitY=0.25;exitDx=0;exitDy=0;entryX=0.25;entryY=1;entryDx=0;entryDy=0;" edge="1" parent="1" source="JVdptQY95MM00BN9dN_g-8" target="JVdptQY95MM00BN9dN_g-2">
          <mxGeometry relative="1" as="geometry" />
        </mxCell>
        <mxCell id="JVdptQY95MM00BN9dN_g-55" style="edgeStyle=orthogonalEdgeStyle;rounded=0;orthogonalLoop=1;jettySize=auto;html=1;entryX=0.622;entryY=1.037;entryDx=0;entryDy=0;entryPerimeter=0;" edge="1" parent="1" source="JVdptQY95MM00BN9dN_g-8" target="JVdptQY95MM00BN9dN_g-10">
          <mxGeometry relative="1" as="geometry" />
        </mxCell>
        <mxCell id="JVdptQY95MM00BN9dN_g-8" value="" style="rounded=0;whiteSpace=wrap;html=1;" vertex="1" parent="1">
          <mxGeometry x="530" y="490" width="120" height="100" as="geometry" />
        </mxCell>
        <mxCell id="JVdptQY95MM00BN9dN_g-10" value="" style="rounded=0;whiteSpace=wrap;html=1;" vertex="1" parent="1">
          <mxGeometry x="730" y="200" width="120" height="90" as="geometry" />
        </mxCell>
        <mxCell id="JVdptQY95MM00BN9dN_g-27" value="" style="rounded=0;whiteSpace=wrap;html=1;" vertex="1" parent="1">
          <mxGeometry x="252" y="120" width="138" height="80" as="geometry" />
        </mxCell>
        <mxCell id="JVdptQY95MM00BN9dN_g-28" value="" style="rounded=0;whiteSpace=wrap;html=1;" vertex="1" parent="1">
          <mxGeometry x="215" y="340" width="150" height="120" as="geometry" />
        </mxCell>
        <mxCell id="JVdptQY95MM00BN9dN_g-30" value="" style="rounded=0;whiteSpace=wrap;html=1;" vertex="1" parent="1">
          <mxGeometry x="230" y="490" width="120" height="90" as="geometry" />
        </mxCell>
        <mxCell id="JVdptQY95MM00BN9dN_g-56" value="&lt;div&gt;type Data struct {&lt;/div&gt;&lt;div&gt;&amp;nbsp; &amp;nbsp; objectidentifier&lt;span style=&quot;&quot;&gt;&lt;/span&gt;&lt;/div&gt;&lt;div&gt;&lt;br&gt;&lt;/div&gt;&lt;div&gt;&lt;span style=&quot;&quot;&gt;&lt;span style=&quot;&quot;&gt;&lt;span style=&quot;white-space: pre;&quot;&gt;&amp;nbsp;&amp;nbsp;&amp;nbsp;&amp;nbsp;&lt;/span&gt;&lt;/span&gt;objectName&amp;nbsp;&lt;/span&gt;&lt;/div&gt;&lt;div&gt;&lt;span style=&quot;&quot;&gt;&amp;nbsp;&lt;/span&gt;&lt;/div&gt;&lt;div&gt;}&lt;/div&gt;" style="rounded=0;whiteSpace=wrap;html=1;fillColor=#f5f5f5;strokeColor=#666666;fontColor=#333333;" vertex="1" parent="1">
          <mxGeometry x="14" y="30" width="120" height="126" as="geometry" />
        </mxCell>
        <mxCell id="JVdptQY95MM00BN9dN_g-61" value="File name :csvinfomodel.go" style="text;html=1;strokeColor=#82b366;fillColor=#d5e8d4;align=center;verticalAlign=middle;whiteSpace=wrap;rounded=0;" vertex="1" parent="1">
          <mxGeometry x="14" y="-14" width="112" height="30" as="geometry" />
        </mxCell>
        <mxCell id="JVdptQY95MM00BN9dN_g-26" value="type TransceiverStats struct {&amp;nbsp;&amp;nbsp;&lt;br&gt;&lt;div&gt;objectName&amp;nbsp; &amp;nbsp; &amp;nbsp; &amp;nbsp;string&lt;/div&gt;&lt;div&gt;StartTime&amp;nbsp; &amp;nbsp; &amp;nbsp; &amp;nbsp; &amp;nbsp; &amp;nbsp;string&lt;span style=&quot;&quot;&gt;&lt;/span&gt;&lt;/div&gt;&lt;div&gt;&lt;span style=&quot;&quot;&gt;EndTime&amp;nbsp; &amp;nbsp; &amp;nbsp; &amp;nbsp; &amp;nbsp; string&lt;/span&gt;&lt;/div&gt;&lt;div&gt;&lt;span style=&quot;&quot;&gt;&lt;span style=&quot;&quot;&gt;&lt;span style=&quot;white-space: pre;&quot;&gt;&amp;nbsp;&lt;/span&gt;&lt;/span&gt;ObjectUnitID&amp;nbsp; &amp;nbsp; &amp;nbsp;string&lt;/span&gt;&lt;/div&gt;&lt;br&gt;&lt;br&gt;}" style="rounded=0;whiteSpace=wrap;html=1;fillColor=#f5f5f5;strokeColor=#666666;fontColor=#333333;" vertex="1" parent="1">
          <mxGeometry x="224" y="-56" width="182" height="146" as="geometry" />
        </mxCell>
      </root>
    </mxGraphModel>
  </diagram>
</mxfile>
